<svg width="20" height="20" viewBox="0 0 20 20" fill="none" xmlns="http://www.w3.org/2000/svg">
<mask id="mask0_947_164" style="mask-type:alpha" maskUnits="userSpaceOnUse" x="0" y="0" width="20" height="20">
<rect width="20" height="20" fill="#D9D9D9"/>
</mask>
<g mask="url(#mask0_947_164)">
<path d="M9.9987 10.4853L12.7039 13.1903C12.7818 13.2684 12.8601 13.3066 12.9387 13.3049C13.0172 13.3034 13.1007 13.2582 13.1893 13.1695C13.2781 13.0809 13.3224 13 13.3224 12.9268C13.3224 12.8536 13.2781 12.7729 13.1893 12.6849L10.4843 9.98926L13.1893 7.29363C13.2674 7.21627 13.309 7.13829 13.3143 7.05967C13.3197 6.9812 13.2781 6.89766 13.1893 6.80905C13.1007 6.7203 13.0198 6.67593 12.9466 6.67593C12.8734 6.67593 12.7925 6.7203 12.7039 6.80905L9.9987 9.51405L7.29349 6.80905C7.21557 6.73099 7.14078 6.68933 7.06911 6.68405C6.99759 6.67863 6.91752 6.7203 6.82891 6.80905C6.74016 6.89766 6.69578 6.97856 6.69578 7.05176C6.69578 7.12495 6.73953 7.20586 6.82703 7.29447L9.51307 9.99967L6.80807 12.7049C6.73002 12.7828 6.69182 12.8576 6.69349 12.9293C6.69502 13.0008 6.74016 13.0809 6.82891 13.1695C6.91752 13.2582 6.99842 13.3026 7.07161 13.3026C7.14481 13.3026 7.22516 13.2588 7.31266 13.1713L9.9987 10.4853ZM10.0072 17.1663C9.02182 17.1663 8.09342 16.98 7.22203 16.6072C6.35078 16.2344 5.58786 15.7211 4.93328 15.0672C4.2787 14.4133 3.76488 13.6513 3.39182 12.7813C3.01863 11.9115 2.83203 10.982 2.83203 9.99301C2.83203 9.00384 3.01842 8.07703 3.3912 7.21259C3.76398 6.34829 4.27731 5.58884 4.9312 4.93426C5.58509 4.27967 6.34703 3.76585 7.21703 3.3928C8.08689 3.0196 9.01634 2.83301 10.0054 2.83301C10.9945 2.83301 11.9213 3.0194 12.7858 3.39218C13.6501 3.76495 14.4095 4.27829 15.0641 4.93217C15.7187 5.58606 16.2325 6.34634 16.6056 7.21301C16.9788 8.07967 17.1654 9.00572 17.1654 9.99113C17.1654 10.9765 16.979 11.905 16.6062 12.7763C16.2334 13.6476 15.7201 14.4105 15.0662 15.0651C14.4123 15.7197 13.652 16.2335 12.7854 16.6066C11.9187 16.9797 10.9927 17.1663 10.0072 17.1663Z" fill="#1A1A1A"/>
</g>
</svg>
