<svg width="48" height="48" viewBox="0 0 48 48" fill="none" xmlns="http://www.w3.org/2000/svg">
<rect x="6.86719" y="13.6943" width="3.42633" height="3.42633" fill="#4000F5"/>
<rect x="6.86719" y="17.1206" width="3.42633" height="3.42633" fill="#4000F5"/>
<rect x="6.86719" y="20.5464" width="3.42633" height="3.42633" fill="#4000F5"/>
<rect x="6.86719" y="23.9731" width="3.42633" height="3.42633" fill="#4000F5"/>
<rect x="6.86719" y="27.3999" width="3.42633" height="3.42633" fill="#4000F5"/>
<rect x="6.86719" y="30.8257" width="3.42633" height="3.42633" fill="#4000F5"/>
<rect x="3.44141" y="30.8257" width="3.42633" height="3.42633" fill="#4000F5"/>
<rect x="41.125" y="13.6943" width="3.42633" height="3.42633" fill="#4000F5"/>
<rect x="41.125" y="10.2676" width="3.42633" height="3.42633" fill="#4000F5"/>
<rect x="41.125" y="17.1206" width="3.42633" height="3.42633" fill="#4000F5"/>
<rect x="37.6992" y="17.1206" width="3.42633" height="3.42633" fill="#4000F5"/>
<rect x="34.2734" y="17.1206" width="3.42633" height="3.42633" fill="#4000F5"/>
<rect x="30.8477" y="17.1206" width="3.42633" height="3.42633" fill="#4000F5"/>
<rect x="27.418" y="17.1206" width="3.42633" height="3.42633" fill="#4000F5"/>
<rect x="23.9961" y="17.1206" width="3.42633" height="3.42633" fill="#4000F5"/>
<rect x="41.125" y="20.5464" width="3.42633" height="3.42633" fill="#4000F5"/>
<rect x="41.125" y="23.9731" width="3.42633" height="3.42633" fill="#4000F5"/>
<rect x="41.125" y="27.3999" width="3.42633" height="3.42633" fill="#4000F5"/>
<rect x="37.6992" y="30.8257" width="3.42633" height="3.42633" fill="#4000F5"/>
<rect x="34.2734" y="30.8257" width="3.42633" height="3.42633" fill="#4000F5"/>
<rect x="30.8477" y="30.8257" width="3.42633" height="3.42633" fill="#4000F5"/>
<rect x="27.418" y="30.8257" width="3.42633" height="3.42633" fill="#4000F5"/>
<rect x="23.9883" y="30.8257" width="3.42633" height="3.42633" fill="#4000F5"/>
<rect x="20.5703" y="34.252" width="3.42633" height="3.42633" fill="#4000F5"/>
<rect x="6.86719" y="34.252" width="3.42633" height="3.42633" fill="#4000F5"/>
<rect x="3.44141" y="34.252" width="3.42633" height="3.42633" fill="#4000F5"/>
<rect x="6.86328" y="37.6787" width="3.42633" height="3.42633" fill="#4000F5"/>
<rect x="3.44141" y="37.6787" width="3.42633" height="3.42633" fill="#4000F5"/>
<rect x="6.86328" y="41.1045" width="3.42633" height="3.42633" fill="#4000F5"/>
<rect x="3.44141" y="41.1045" width="3.42633" height="3.42633" fill="#4000F5"/>
<rect x="17.1367" y="37.6787" width="3.42633" height="3.42633" fill="#4000F5"/>
<rect x="13.7148" y="41.1045" width="3.42633" height="3.42633" fill="#4000F5"/>
<rect x="10.2891" y="41.1045" width="3.42633" height="3.42633" fill="#4000F5"/>
<rect x="6.86719" y="41.1045" width="3.42633" height="3.42633" fill="#4000F5"/>
<rect x="6.86719" y="10.2676" width="3.42633" height="3.42633" fill="#4000F5"/>
<rect x="3.44141" y="10.2676" width="3.42633" height="20.558" fill="#4000F5"/>
<rect x="41.125" y="6.84131" width="3.42633" height="3.42633" fill="#4000F5"/>
<rect x="37.6992" y="17.9395" width="3.42633" height="13.7053" fill="#4000F5"/>
<rect x="37.6992" y="3.46924" width="3.42633" height="3.42633" fill="#4000F5"/>
<rect x="17.1406" y="3.46924" width="3.42633" height="3.42633" fill="#4000F5"/>
<rect x="20.5703" y="3.46924" width="3.42633" height="3.42633" fill="#4000F5"/>
<rect x="6.86719" y="6.84131" width="3.42633" height="3.42633" fill="#4000F5"/>
<rect x="10.2891" y="6.84131" width="3.42633" height="3.42633" fill="#4000F5"/>
<rect x="13.7148" y="3.46924" width="3.42633" height="3.42633" fill="#4000F5"/>
<rect x="23.9961" y="3.46924" width="3.42633" height="3.42633" fill="#4000F5"/>
<rect x="27.418" y="3.46924" width="3.42633" height="3.42633" fill="#4000F5"/>
<rect x="30.8477" y="3.46924" width="3.42633" height="3.42633" fill="#4000F5"/>
<rect x="34.2734" y="3.46924" width="3.42633" height="3.42633" fill="#4000F5"/>
</svg>
